<?xml version="1.0" encoding="UTF-8"?><svg xmlns="http://www.w3.org/2000/svg" viewBox="0 0 1144 166.61"><defs><style>.d{fill:#fff;}</style></defs><g id="a"/><g id="b"><g id="c"><g><path class="d" d="M833.5,8.06c-17.1-2.67-56.82-8.06-99.22-8.06-95.33,0-124.13,17.67-147.96,17.67S533.69,0,438.36,0c-42.41,0-82.13,5.39-99.23,8.06-5.63,.88-8.81,6.64-8.81,11.4v22.65c0,3.58,1.73,5.72,4.12,7.68,4.49,3.68,11.28,10.83,13.35,21.71,3.18,16.69,18.27,64.35,40.52,79.44,22.24,15.1,119.16,27.01,145.38-2.38,26.21-29.39,38.22-72.84,38.93-77.06,1.59-9.53,8.13-13.5,13.7-13.5s12.11,3.97,13.7,13.5c.7,4.22,12.7,47.67,38.92,77.06,26.21,29.39,123.13,17.48,145.38,2.38,22.24-15.09,37.34-62.75,40.51-79.44,2.07-10.88,8.88-18.04,13.36-21.71,2.39-1.96,4.12-4.1,4.12-7.68V19.46c0-4.76-3.18-10.52-8.82-11.4Zm-293.41,66.46c-1.18,5.53-3.91,32.07-29.19,57.5-4.64,4.67-18.08,10.17-43.35,10.17h0c-27.09,0-52.82-6.18-59.34-10.61-12.72-8.63-33.19-55.1-26.51-80.51,4.69-15.21,44.18-16.72,61.53-16.72,42.89,0,69.25,5.59,87.94,11.39,3.5,1.09,12.38,5.5,8.94,28.77Zm224.35,57.06c-6.52,4.43-32.25,10.61-59.34,10.61h0c-25.28,0-38.72-5.5-43.36-10.17-25.27-25.43-28.01-51.97-29.18-57.5-3.45-23.27,5.43-27.68,8.94-28.77,18.69-5.8,45.04-11.39,87.93-11.39,17.35,0,56.84,1.51,61.52,16.72,6.69,25.41-13.78,71.88-26.5,80.51Z"/><g><path class="d" d="M59.89,18.02V104.36c0,10.31-.72,18.01-2.16,23.08-1.44,5.76-3.89,10.63-7.35,14.61-6.74,7.89-15.67,11.84-26.79,11.84-8.41,0-16.28-2.19-23.59-6.57l9.85-17.2c4.9,3.29,9.48,4.93,13.74,4.93,5.99,0,10.14-2.28,12.45-6.83,2.42-4.55,3.63-12.5,3.63-23.85V18.02h20.22Z"/><path class="d" d="M162.12,119.05h-57.13l-14.87,32.41h-21.69L134.46,9.64l63.69,141.82h-22.04l-14-32.41Zm-8.21-18.93l-19.79-45.37-20.74,45.37h40.53Z"/><path class="d" d="M303.71,25.19v23.85c-11.64-9.74-23.68-14.61-36.13-14.61-13.71,0-25.27,4.93-34.66,14.78-9.45,9.8-14.17,21.78-14.17,35.95s4.72,25.81,14.17,35.43c9.45,9.62,21.03,14.43,34.74,14.43,7.09,0,13.11-1.15,18.06-3.46,2.77-1.15,5.63-2.71,8.6-4.67,2.97-1.96,6.09-4.32,9.38-7.09v24.29c-11.52,6.51-23.62,9.77-36.3,9.77-19.07,0-35.35-6.65-48.83-19.96-13.42-13.42-20.14-29.61-20.14-48.57,0-17,5.62-32.15,16.85-45.46,13.83-16.3,31.72-24.46,53.67-24.46,11.98,0,23.56,3.26,34.74,9.77Z"/></g><g><path class="d" d="M891.06,71.26l51.94-53.24h26.88l-60.33,60.41,60.67,73.03h-26.96l-48.05-59.37-4.15,4.15v55.23h-20.14V18.02h20.14v53.24Z"/><path class="d" d="M1016.42,18.02V151.46h-20.14V18.02h20.14Z"/><path class="d" d="M1144,36.95h-64.25v32.06h62.38v18.93h-62.38v44.59h64.25v18.93h-88.43V18.02h88.43v18.93Z"/></g></g></g></g></svg>